<svg width="884" height="272" viewBox="0 0 884 272" fill="none" xmlns="http://www.w3.org/2000/svg">
<g clip-path="url(#clip0_2003_2)">
<g opacity="0.9">
<path d="M48.8216 98.3383V69.9766C48.8216 68.4332 49.5934 67.6614 51.1369 67.6614H137.524" stroke="url(#paint0_linear_2003_2)" stroke-width="5.7881" stroke-linecap="round" stroke-linejoin="round"/>
<path d="M48.8216 179.661V208.023C48.8216 209.566 49.5934 210.338 51.1369 210.338H137.524" stroke="url(#paint1_linear_2003_2)" stroke-width="5.7881" stroke-linecap="round" stroke-linejoin="round"/>
</g>
<mask id="mask0_2003_2" style="mask-type:luminance" maskUnits="userSpaceOnUse" x="18" y="98" width="62" height="82">
<path d="M71.2505 98.3383H26.3927C21.7576 98.3383 18 102.096 18 106.731V171.268C18 175.904 21.7576 179.661 26.3927 179.661H71.2505C75.8857 179.661 79.6433 175.904 79.6433 171.268V106.731C79.6433 102.096 75.8857 98.3383 71.2505 98.3383Z" fill="white"/>
</mask>
<g mask="url(#mask0_2003_2)">
<path d="M71.2505 98.3383H26.3927C21.7576 98.3383 18 102.096 18 106.731V171.268C18 175.904 21.7576 179.661 26.3927 179.661H71.2505C75.8857 179.661 79.6433 175.904 79.6433 171.268V106.731C79.6433 102.096 75.8857 98.3383 71.2505 98.3383Z" fill="url(#paint2_linear_2003_2)"/>
<path d="M18 98.3383H79.6433V118.741C78.1962 130.896 72.9869 138.71 64.3048 145.945C53.8862 154.917 45.4935 165.046 37.6795 179.661H18V98.3383Z" fill="url(#paint3_linear_2003_2)"/>
<path d="M18 98.3383H71.5399C72.4081 116.137 66.9094 126.555 59.0955 134.08C50.7028 142.183 41.1524 148.261 33.0491 158.679C25.8139 167.94 21.7623 175.175 19.7364 179.661H18V98.3383Z" fill="url(#paint4_linear_2003_2)"/>
<path d="M79.6433 98.3383H18V179.661H79.6433V98.3383Z" fill="url(#paint5_radial_2003_2)"/>
</g>
<path d="M19.447 117.005V108.033C19.447 102.824 23.4987 99.6407 28.9974 99.6407H70.9611" stroke="url(#paint6_linear_2003_2)" stroke-width="1.59173" stroke-linecap="round"/>
<path d="M71.2505 98.7724H26.3927C21.9973 98.7724 18.4341 102.336 18.4341 106.731V171.268C18.4341 175.664 21.9973 179.227 26.3927 179.227H71.2505C75.646 179.227 79.2092 175.664 79.2092 171.268V106.731C79.2092 102.336 75.646 98.7724 71.2505 98.7724Z" stroke="url(#paint7_linear_2003_2)" stroke-width="1.01292"/>
<mask id="mask1_2003_2" style="mask-type:luminance" maskUnits="userSpaceOnUse" x="137" y="27" width="63" height="82">
<path d="M190.775 27H145.917C141.282 27 137.524 30.7576 137.524 35.3927V99.9301C137.524 104.565 141.282 108.323 145.917 108.323H190.775C195.41 108.323 199.168 104.565 199.168 99.9301V35.3927C199.168 30.7576 195.41 27 190.775 27Z" fill="white"/>
</mask>
<g mask="url(#mask1_2003_2)">
<path d="M190.775 27H145.917C141.282 27 137.524 30.7576 137.524 35.3927V99.9301C137.524 104.565 141.282 108.323 145.917 108.323H190.775C195.41 108.323 199.168 104.565 199.168 99.9301V35.3927C199.168 30.7576 195.41 27 190.775 27Z" fill="url(#paint8_linear_2003_2)"/>
<path d="M137.524 27H199.168V47.2584C197.72 59.4134 192.511 67.2273 183.829 74.4624C173.41 83.434 165.018 93.5632 157.204 108.323H137.524V27Z" fill="url(#paint9_linear_2003_2)"/>
<path d="M137.524 27H191.064C191.932 44.9431 186.434 55.3617 178.62 62.8862C170.227 70.9896 160.677 77.0671 152.573 87.4856C145.338 96.7466 141.287 103.982 139.261 108.323H137.524V27Z" fill="url(#paint10_linear_2003_2)"/>
<path d="M199.168 27H137.524V108.323H199.168V27Z" fill="url(#paint11_radial_2003_2)"/>
</g>
<path d="M138.971 45.5219V36.5504C138.971 31.3411 143.023 28.1576 148.522 28.1576H190.485" stroke="url(#paint12_linear_2003_2)" stroke-width="1.59173" stroke-linecap="round"/>
<path d="M190.775 27.4341H145.917C141.522 27.4341 137.958 30.9973 137.958 35.3927V99.9301C137.958 104.325 141.522 107.889 145.917 107.889H190.775C195.17 107.889 198.733 104.325 198.733 99.9301V35.3927C198.733 30.9973 195.17 27.4341 190.775 27.4341Z" stroke="url(#paint13_linear_2003_2)" stroke-width="1.01292"/>
<mask id="mask2_2003_2" style="mask-type:luminance" maskUnits="userSpaceOnUse" x="137" y="169" width="63" height="82">
<path d="M190.775 169.677H145.917C141.282 169.677 137.524 173.434 137.524 178.069V242.607C137.524 247.242 141.282 250.999 145.917 250.999H190.775C195.41 250.999 199.168 247.242 199.168 242.607V178.069C199.168 173.434 195.41 169.677 190.775 169.677Z" fill="white"/>
</mask>
<g mask="url(#mask2_2003_2)">
<path d="M190.775 169.677H145.917C141.282 169.677 137.524 173.434 137.524 178.069V242.607C137.524 247.242 141.282 250.999 145.917 250.999H190.775C195.41 250.999 199.168 247.242 199.168 242.607V178.069C199.168 173.434 195.41 169.677 190.775 169.677Z" fill="url(#paint14_linear_2003_2)"/>
<path d="M137.524 169.677H199.168V189.935C197.72 202.09 192.511 209.904 183.829 217.139C173.41 226.111 165.018 236.24 157.204 250.999H137.524V169.677Z" fill="url(#paint15_linear_2003_2)"/>
<path d="M137.524 169.677H191.064C191.932 187.62 186.434 198.038 178.62 205.563C170.227 213.666 160.677 219.744 152.573 230.162C145.338 239.423 141.287 246.658 139.261 250.999H137.524V169.677Z" fill="url(#paint16_linear_2003_2)"/>
<path d="M199.168 169.677H137.524V250.999H199.168V169.677Z" fill="url(#paint17_radial_2003_2)"/>
</g>
<path d="M138.971 188.199V179.227C138.971 174.018 143.023 170.834 148.522 170.834H190.485" stroke="url(#paint18_linear_2003_2)" stroke-width="1.59173" stroke-linecap="round"/>
<path d="M190.775 170.111H145.917C141.522 170.111 137.958 173.674 137.958 178.069V242.607C137.958 247.002 141.522 250.565 145.917 250.565H190.775C195.17 250.565 198.733 247.002 198.733 242.607V178.069C198.733 173.674 195.17 170.111 190.775 170.111Z" stroke="url(#paint19_linear_2003_2)" stroke-width="1.01292"/>
<path d="M229.455 169.023C224.159 169.023 219.58 167.898 215.716 165.648C211.875 163.375 208.909 160.216 206.818 156.17C204.727 152.102 203.682 147.386 203.682 142.023C203.682 136.614 204.727 131.886 206.818 127.841C208.909 123.773 211.875 120.614 215.716 118.364C219.58 116.091 224.159 114.955 229.455 114.955C234.75 114.955 239.318 116.091 243.159 118.364C247.023 120.614 250 123.773 252.091 127.841C254.182 131.886 255.227 136.614 255.227 142.023C255.227 147.386 254.182 152.102 252.091 156.17C250 160.216 247.023 163.375 243.159 165.648C239.318 167.898 234.75 169.023 229.455 169.023ZM229.523 157.773C231.932 157.773 233.943 157.091 235.557 155.727C237.17 154.341 238.386 152.455 239.205 150.068C240.045 147.682 240.466 144.966 240.466 141.92C240.466 138.875 240.045 136.159 239.205 133.773C238.386 131.386 237.17 129.5 235.557 128.114C233.943 126.727 231.932 126.034 229.523 126.034C227.091 126.034 225.045 126.727 223.386 128.114C221.75 129.5 220.511 131.386 219.67 133.773C218.852 136.159 218.443 138.875 218.443 141.92C218.443 144.966 218.852 147.682 219.67 150.068C220.511 152.455 221.75 154.341 223.386 155.727C225.045 157.091 227.091 157.773 229.523 157.773ZM264.67 168V115.636H278.511V124.875H279.125C280.216 121.807 282.034 119.386 284.58 117.614C287.125 115.841 290.17 114.955 293.716 114.955C297.307 114.955 300.364 115.852 302.886 117.648C305.409 119.42 307.091 121.83 307.932 124.875H308.477C309.545 121.875 311.477 119.477 314.273 117.682C317.091 115.864 320.42 114.955 324.261 114.955C329.148 114.955 333.114 116.511 336.159 119.625C339.227 122.716 340.761 127.102 340.761 132.784V168H326.273V135.648C326.273 132.739 325.5 130.557 323.955 129.102C322.409 127.648 320.477 126.92 318.159 126.92C315.523 126.92 313.466 127.761 311.989 129.443C310.511 131.102 309.773 133.295 309.773 136.023V168H295.693V135.341C295.693 132.773 294.955 130.727 293.477 129.205C292.023 127.682 290.102 126.92 287.716 126.92C286.102 126.92 284.648 127.33 283.352 128.148C282.08 128.943 281.068 130.068 280.318 131.523C279.568 132.955 279.193 134.636 279.193 136.568V168H264.67ZM380.392 115.636V126.545H348.074V115.636H380.392ZM355.472 168V111.852C355.472 108.057 356.21 104.909 357.688 102.409C359.188 99.9091 361.233 98.0341 363.824 96.7841C366.415 95.5341 369.358 94.9091 372.653 94.9091C374.881 94.9091 376.915 95.0795 378.756 95.4205C380.619 95.7614 382.006 96.0682 382.915 96.3409L380.324 107.25C379.756 107.068 379.051 106.898 378.21 106.739C377.392 106.58 376.551 106.5 375.688 106.5C373.551 106.5 372.062 107 371.222 108C370.381 108.977 369.96 110.352 369.96 112.125V168H355.472ZM398.23 187.636C396.389 187.636 394.662 187.489 393.048 187.193C391.457 186.92 390.139 186.568 389.094 186.136L392.366 175.295C394.071 175.818 395.605 176.102 396.969 176.148C398.355 176.193 399.548 175.875 400.548 175.193C401.571 174.511 402.401 173.352 403.037 171.716L403.889 169.5L385.105 115.636H400.378L411.219 154.091H411.764L422.707 115.636H438.082L417.73 173.659C416.753 176.477 415.423 178.932 413.741 181.023C412.082 183.136 409.98 184.761 407.435 185.898C404.889 187.057 401.821 187.636 398.23 187.636ZM445.787 168V98.1818H473.332C478.605 98.1818 483.105 99.125 486.832 101.011C490.582 102.875 493.435 105.523 495.389 108.955C497.366 112.364 498.355 116.375 498.355 120.989C498.355 125.625 497.355 129.614 495.355 132.955C493.355 136.273 490.457 138.818 486.662 140.591C482.889 142.364 478.321 143.25 472.957 143.25H454.514V131.386H470.571C473.389 131.386 475.73 131 477.594 130.227C479.457 129.455 480.844 128.295 481.753 126.75C482.685 125.205 483.151 123.284 483.151 120.989C483.151 118.67 482.685 116.716 481.753 115.125C480.844 113.534 479.446 112.33 477.56 111.511C475.696 110.67 473.344 110.25 470.503 110.25H460.548V168H445.787ZM483.491 136.227L500.844 168H484.548L467.571 136.227H483.491ZM531.534 169.023C526.148 169.023 521.511 167.932 517.625 165.75C513.761 163.545 510.784 160.432 508.693 156.409C506.602 152.364 505.557 147.58 505.557 142.057C505.557 136.67 506.602 131.943 508.693 127.875C510.784 123.807 513.727 120.636 517.523 118.364C521.341 116.091 525.818 114.955 530.955 114.955C534.409 114.955 537.625 115.511 540.602 116.625C543.602 117.716 546.216 119.364 548.443 121.568C550.693 123.773 552.443 126.545 553.693 129.886C554.943 133.205 555.568 137.091 555.568 141.545V145.534H511.352V136.534H541.898C541.898 134.443 541.443 132.591 540.534 130.977C539.625 129.364 538.364 128.102 536.75 127.193C535.159 126.261 533.307 125.795 531.193 125.795C528.989 125.795 527.034 126.307 525.33 127.33C523.648 128.33 522.33 129.682 521.375 131.386C520.42 133.068 519.932 134.943 519.909 137.011V145.568C519.909 148.159 520.386 150.398 521.341 152.284C522.318 154.17 523.693 155.625 525.466 156.648C527.239 157.67 529.341 158.182 531.773 158.182C533.386 158.182 534.864 157.955 536.205 157.5C537.545 157.045 538.693 156.364 539.648 155.455C540.602 154.545 541.33 153.432 541.83 152.114L555.261 153C554.58 156.227 553.182 159.045 551.068 161.455C548.977 163.841 546.273 165.705 542.955 167.045C539.659 168.364 535.852 169.023 531.534 169.023ZM608.614 130.568L595.318 131.386C595.091 130.25 594.602 129.227 593.852 128.318C593.102 127.386 592.114 126.648 590.886 126.102C589.682 125.534 588.239 125.25 586.557 125.25C584.307 125.25 582.409 125.727 580.864 126.682C579.318 127.614 578.545 128.864 578.545 130.432C578.545 131.682 579.045 132.739 580.045 133.602C581.045 134.466 582.761 135.159 585.193 135.682L594.67 137.591C599.761 138.636 603.557 140.318 606.057 142.636C608.557 144.955 609.807 148 609.807 151.773C609.807 155.205 608.795 158.216 606.773 160.807C604.773 163.398 602.023 165.42 598.523 166.875C595.045 168.307 591.034 169.023 586.489 169.023C579.557 169.023 574.034 167.58 569.92 164.693C565.83 161.784 563.432 157.83 562.727 152.83L577.011 152.08C577.443 154.193 578.489 155.807 580.148 156.92C581.807 158.011 583.932 158.557 586.523 158.557C589.068 158.557 591.114 158.068 592.659 157.091C594.227 156.091 595.023 154.807 595.045 153.239C595.023 151.92 594.466 150.841 593.375 150C592.284 149.136 590.602 148.477 588.33 148.023L579.261 146.216C574.148 145.193 570.341 143.42 567.841 140.898C565.364 138.375 564.125 135.159 564.125 131.25C564.125 127.886 565.034 124.989 566.852 122.557C568.693 120.125 571.273 118.25 574.591 116.932C577.932 115.614 581.841 114.955 586.318 114.955C592.932 114.955 598.136 116.352 601.932 119.148C605.75 121.943 607.977 125.75 608.614 130.568ZM642.815 169.023C637.429 169.023 632.793 167.932 628.906 165.75C625.043 163.545 622.065 160.432 619.974 156.409C617.884 152.364 616.838 147.58 616.838 142.057C616.838 136.67 617.884 131.943 619.974 127.875C622.065 123.807 625.009 120.636 628.804 118.364C632.622 116.091 637.099 114.955 642.236 114.955C645.69 114.955 648.906 115.511 651.884 116.625C654.884 117.716 657.497 119.364 659.724 121.568C661.974 123.773 663.724 126.545 664.974 129.886C666.224 133.205 666.849 137.091 666.849 141.545V145.534H622.634V136.534H653.179C653.179 134.443 652.724 132.591 651.815 130.977C650.906 129.364 649.645 128.102 648.031 127.193C646.44 126.261 644.588 125.795 642.474 125.795C640.27 125.795 638.315 126.307 636.611 127.33C634.929 128.33 633.611 129.682 632.656 131.386C631.702 133.068 631.213 134.943 631.19 137.011V145.568C631.19 148.159 631.668 150.398 632.622 152.284C633.599 154.17 634.974 155.625 636.747 156.648C638.52 157.67 640.622 158.182 643.054 158.182C644.668 158.182 646.145 157.955 647.486 157.5C648.827 157.045 649.974 156.364 650.929 155.455C651.884 154.545 652.611 153.432 653.111 152.114L666.543 153C665.861 156.227 664.463 159.045 662.349 161.455C660.259 163.841 657.554 165.705 654.236 167.045C650.94 168.364 647.134 169.023 642.815 169.023ZM691.259 168.989C687.918 168.989 684.94 168.409 682.327 167.25C679.713 166.068 677.645 164.33 676.122 162.034C674.622 159.716 673.872 156.83 673.872 153.375C673.872 150.466 674.406 148.023 675.474 146.045C676.543 144.068 677.997 142.477 679.838 141.273C681.679 140.068 683.77 139.159 686.111 138.545C688.474 137.932 690.952 137.5 693.543 137.25C696.588 136.932 699.043 136.636 700.906 136.364C702.77 136.068 704.122 135.636 704.963 135.068C705.804 134.5 706.224 133.659 706.224 132.545V132.341C706.224 130.182 705.543 128.511 704.179 127.33C702.838 126.148 700.929 125.557 698.452 125.557C695.838 125.557 693.759 126.136 692.213 127.295C690.668 128.432 689.645 129.864 689.145 131.591L675.713 130.5C676.395 127.318 677.736 124.568 679.736 122.25C681.736 119.909 684.315 118.114 687.474 116.864C690.656 115.591 694.338 114.955 698.52 114.955C701.429 114.955 704.213 115.295 706.872 115.977C709.554 116.659 711.929 117.716 713.997 119.148C716.088 120.58 717.736 122.42 718.94 124.67C720.145 126.898 720.747 129.568 720.747 132.682V168H706.974V160.739H706.565C705.724 162.375 704.599 163.818 703.19 165.068C701.781 166.295 700.088 167.261 698.111 167.966C696.134 168.648 693.849 168.989 691.259 168.989ZM695.418 158.966C697.554 158.966 699.44 158.545 701.077 157.705C702.713 156.841 703.997 155.682 704.929 154.227C705.861 152.773 706.327 151.125 706.327 149.284V143.727C705.872 144.023 705.247 144.295 704.452 144.545C703.679 144.773 702.804 144.989 701.827 145.193C700.849 145.375 699.872 145.545 698.895 145.705C697.918 145.841 697.031 145.966 696.236 146.08C694.531 146.33 693.043 146.727 691.77 147.273C690.497 147.818 689.509 148.557 688.804 149.489C688.099 150.398 687.747 151.534 687.747 152.898C687.747 154.875 688.463 156.386 689.895 157.432C691.349 158.455 693.19 158.966 695.418 158.966ZM732.014 168V115.636H746.094V124.773H746.639C747.594 121.523 749.196 119.068 751.446 117.409C753.696 115.727 756.287 114.886 759.219 114.886C759.946 114.886 760.73 114.932 761.571 115.023C762.412 115.114 763.151 115.239 763.787 115.398V128.284C763.105 128.08 762.162 127.898 760.957 127.739C759.753 127.58 758.651 127.5 757.651 127.5C755.514 127.5 753.605 127.966 751.923 128.898C750.264 129.807 748.946 131.08 747.969 132.716C747.014 134.352 746.537 136.239 746.537 138.375V168H732.014ZM792.517 169.023C787.153 169.023 782.54 167.886 778.676 165.614C774.835 163.318 771.881 160.136 769.812 156.068C767.767 152 766.744 147.318 766.744 142.023C766.744 136.659 767.778 131.955 769.847 127.909C771.938 123.841 774.903 120.67 778.744 118.398C782.585 116.102 787.153 114.955 792.449 114.955C797.017 114.955 801.017 115.784 804.449 117.443C807.881 119.102 810.597 121.432 812.597 124.432C814.597 127.432 815.699 130.955 815.903 135H802.199C801.813 132.386 800.79 130.284 799.131 128.693C797.494 127.08 795.347 126.273 792.688 126.273C790.438 126.273 788.472 126.886 786.79 128.114C785.131 129.318 783.835 131.08 782.903 133.398C781.972 135.716 781.506 138.523 781.506 141.818C781.506 145.159 781.96 148 782.869 150.341C783.801 152.682 785.108 154.466 786.79 155.693C788.472 156.92 790.438 157.534 792.688 157.534C794.347 157.534 795.835 157.193 797.153 156.511C798.494 155.83 799.597 154.841 800.46 153.545C801.347 152.227 801.926 150.648 802.199 148.807H815.903C815.676 152.807 814.585 156.33 812.631 159.375C810.699 162.398 808.028 164.761 804.619 166.466C801.21 168.17 797.176 169.023 792.517 169.023ZM839.724 137.727V168H825.202V98.1818H839.315V124.875H839.929C841.111 121.784 843.02 119.364 845.656 117.614C848.293 115.841 851.599 114.955 855.577 114.955C859.213 114.955 862.384 115.75 865.088 117.341C867.815 118.909 869.929 121.17 871.429 124.125C872.952 127.057 873.702 130.568 873.679 134.659V168H859.156V137.25C859.179 134.023 858.361 131.511 856.702 129.716C855.065 127.92 852.77 127.023 849.815 127.023C847.838 127.023 846.088 127.443 844.565 128.284C843.065 129.125 841.884 130.352 841.02 131.966C840.179 133.557 839.747 135.477 839.724 137.727Z" fill="black"/>
</g>
<defs>
<linearGradient id="paint0_linear_2003_2" x1="48.6769" y1="65.4909" x2="137.524" y2="210.483" gradientUnits="userSpaceOnUse">
<stop stop-color="#9C72DF"/>
<stop offset="0.48" stop-color="#8F61D6"/>
<stop offset="1" stop-color="#7546BE"/>
</linearGradient>
<linearGradient id="paint1_linear_2003_2" x1="48.6769" y1="65.4909" x2="137.524" y2="210.483" gradientUnits="userSpaceOnUse">
<stop stop-color="#9C72DF"/>
<stop offset="0.48" stop-color="#8F61D6"/>
<stop offset="1" stop-color="#7546BE"/>
</linearGradient>
<linearGradient id="paint2_linear_2003_2" x1="18" y1="98.483" x2="79.6433" y2="179.806" gradientUnits="userSpaceOnUse">
<stop stop-color="#4E218F"/>
<stop offset="0.55" stop-color="#361278"/>
<stop offset="1" stop-color="#291045"/>
</linearGradient>
<linearGradient id="paint3_linear_2003_2" x1="19.7364" y1="99.3512" x2="75.881" y2="177.491" gradientUnits="userSpaceOnUse">
<stop stop-color="#7C4AC8"/>
<stop offset="0.55" stop-color="#6134B6"/>
<stop offset="1" stop-color="#4D2697"/>
</linearGradient>
<linearGradient id="paint4_linear_2003_2" x1="19.7364" y1="99.3513" x2="66.0412" y2="170.255" gradientUnits="userSpaceOnUse">
<stop stop-color="#B27CE3"/>
<stop offset="0.5" stop-color="#9A66D4"/>
<stop offset="1" stop-color="#8B57CD"/>
</linearGradient>
<radialGradient id="paint5_radial_2003_2" cx="0" cy="0" r="1" gradientUnits="userSpaceOnUse" gradientTransform="translate(25.2351 103.692) rotate(43) scale(49.7777 59.328)">
<stop stop-color="white" stop-opacity="0.24"/>
<stop offset="0.62" stop-color="#D4C2FC" stop-opacity="0.06"/>
<stop offset="1" stop-color="#D4C2FC" stop-opacity="0"/>
</radialGradient>
<linearGradient id="paint6_linear_2003_2" x1="19.447" y1="99.6407" x2="70.9611" y2="99.6407" gradientUnits="userSpaceOnUse">
<stop stop-color="white" stop-opacity="0.88"/>
<stop offset="0.42" stop-color="#D4C2FC" stop-opacity="0.52"/>
<stop offset="1" stop-color="#D4C2FC" stop-opacity="0"/>
</linearGradient>
<linearGradient id="paint7_linear_2003_2" x1="18.4341" y1="98.7724" x2="95.8239" y2="157.232" gradientUnits="userSpaceOnUse">
<stop stop-color="white" stop-opacity="0.58"/>
<stop offset="0.34" stop-color="#D4C2FC" stop-opacity="0.3"/>
<stop offset="0.72" stop-color="#998DC7" stop-opacity="0.06"/>
<stop offset="1" stop-color="#7714CF" stop-opacity="0.2"/>
</linearGradient>
<linearGradient id="paint8_linear_2003_2" x1="137.524" y1="27" x2="199.168" y2="108.323" gradientUnits="userSpaceOnUse">
<stop stop-color="#7544C4"/>
<stop offset="0.55" stop-color="#592DAB"/>
<stop offset="1" stop-color="#431A86"/>
</linearGradient>
<linearGradient id="paint9_linear_2003_2" x1="139.261" y1="28.447" x2="196.563" y2="106.008" gradientUnits="userSpaceOnUse">
<stop stop-color="#B38AE6"/>
<stop offset="0.52" stop-color="#A37ADC"/>
<stop offset="1" stop-color="#8A5BCF"/>
</linearGradient>
<linearGradient id="paint10_linear_2003_2" x1="138.971" y1="27.8682" x2="183.25" y2="98.483" gradientUnits="userSpaceOnUse">
<stop stop-color="#D9BBF7"/>
<stop offset="0.45" stop-color="#CFACF3"/>
<stop offset="1" stop-color="#BD95ED"/>
</linearGradient>
<radialGradient id="paint11_radial_2003_2" cx="0" cy="0" r="1" gradientUnits="userSpaceOnUse" gradientTransform="translate(144.759 32.2093) rotate(43) scale(49.7777 59.328)">
<stop stop-color="white" stop-opacity="0.27"/>
<stop offset="0.62" stop-color="#D4C2FC" stop-opacity="0.07"/>
<stop offset="1" stop-color="#D4C2FC" stop-opacity="0"/>
</radialGradient>
<linearGradient id="paint12_linear_2003_2" x1="138.971" y1="28.1576" x2="190.485" y2="28.1576" gradientUnits="userSpaceOnUse">
<stop stop-color="white" stop-opacity="0.88"/>
<stop offset="0.42" stop-color="#D4C2FC" stop-opacity="0.52"/>
<stop offset="1" stop-color="#D4C2FC" stop-opacity="0"/>
</linearGradient>
<linearGradient id="paint13_linear_2003_2" x1="137.958" y1="27.4341" x2="215.348" y2="85.894" gradientUnits="userSpaceOnUse">
<stop stop-color="white" stop-opacity="0.58"/>
<stop offset="0.34" stop-color="#D4C2FC" stop-opacity="0.3"/>
<stop offset="0.72" stop-color="#998DC7" stop-opacity="0.06"/>
<stop offset="1" stop-color="#7714CF" stop-opacity="0.2"/>
</linearGradient>
<linearGradient id="paint14_linear_2003_2" x1="137.524" y1="169.677" x2="199.168" y2="250.999" gradientUnits="userSpaceOnUse">
<stop stop-color="#5E2A88"/>
<stop offset="0.55" stop-color="#461A70"/>
<stop offset="1" stop-color="#321052"/>
</linearGradient>
<linearGradient id="paint15_linear_2003_2" x1="139.261" y1="170.834" x2="196.273" y2="248.974" gradientUnits="userSpaceOnUse">
<stop stop-color="#7B3FA8"/>
<stop offset="0.48" stop-color="#602890"/>
<stop offset="1" stop-color="#481A74"/>
</linearGradient>
<linearGradient id="paint16_linear_2003_2" x1="138.971" y1="170.545" x2="183.25" y2="241.16" gradientUnits="userSpaceOnUse">
<stop stop-color="#A465CF"/>
<stop offset="0.5" stop-color="#894AB9"/>
<stop offset="1" stop-color="#6E329E"/>
</linearGradient>
<radialGradient id="paint17_radial_2003_2" cx="0" cy="0" r="1" gradientUnits="userSpaceOnUse" gradientTransform="translate(144.759 174.886) rotate(43) scale(49.7777 59.328)">
<stop stop-color="white" stop-opacity="0.21"/>
<stop offset="0.62" stop-color="#D4C2FC" stop-opacity="0.055"/>
<stop offset="1" stop-color="#D4C2FC" stop-opacity="0"/>
</radialGradient>
<linearGradient id="paint18_linear_2003_2" x1="138.971" y1="170.834" x2="190.485" y2="170.834" gradientUnits="userSpaceOnUse">
<stop stop-color="white" stop-opacity="0.82"/>
<stop offset="0.42" stop-color="#D4C2FC" stop-opacity="0.46"/>
<stop offset="1" stop-color="#D4C2FC" stop-opacity="0"/>
</linearGradient>
<linearGradient id="paint19_linear_2003_2" x1="137.958" y1="170.111" x2="215.348" y2="228.571" gradientUnits="userSpaceOnUse">
<stop stop-color="white" stop-opacity="0.58"/>
<stop offset="0.34" stop-color="#D4C2FC" stop-opacity="0.3"/>
<stop offset="0.72" stop-color="#998DC7" stop-opacity="0.06"/>
<stop offset="1" stop-color="#7714CF" stop-opacity="0.2"/>
</linearGradient>
<clipPath id="clip0_2003_2">
<rect width="884" height="272"/>
</clipPath>
</defs>
</svg>
